<svg width="27" height="27" viewBox="0 0 27 27" fill="none" xmlns="http://www.w3.org/2000/svg">
<path d="M12.0337 26.3127L0.802237 15.0812C0.632064 14.911 0.51124 14.7266 0.439767 14.5281C0.369428 14.3296 0.334259 14.1169 0.334259 13.89C0.334259 13.6631 0.369428 13.4503 0.439767 13.2518C0.51124 13.0533 0.632064 12.8689 0.802237 12.6987L12.0337 1.46727C12.3457 1.15528 12.7354 0.991913 13.2028 0.977165C13.6714 0.963551 14.0758 1.12692 14.4161 1.46727C14.7565 1.77925 14.934 2.16895 14.9488 2.63636C14.9624 3.10491 14.799 3.50935 14.4587 3.8497L6.12017 12.1882H25.1371C25.6193 12.1882 26.0237 12.351 26.3504 12.6766C26.676 13.0034 26.8388 13.4078 26.8388 13.89C26.8388 14.3721 26.676 14.776 26.3504 15.1016C26.0237 15.4283 25.6193 15.5917 25.1371 15.5917H6.12017L14.4587 23.9302C14.7707 24.2422 14.934 24.6393 14.9488 25.1214C14.9624 25.6036 14.799 26.0007 14.4587 26.3127C14.1467 26.653 13.7496 26.8232 13.2675 26.8232C12.7853 26.8232 12.3741 26.653 12.0337 26.3127Z" fill="#001855"/>
</svg>
